<?xml version="1.0" encoding="utf-8"?>
<!-- Generator: Adobe Illustrator 19.0.0, SVG Export Plug-In . SVG Version: 6.00 Build 0)  -->
<svg version="1.1" id="Layer_1" xmlns="http://www.w3.org/2000/svg" xmlns:xlink="http://www.w3.org/1999/xlink" x="0px" y="0px"
	 viewBox="0 0 612 792" style="enable-background:new 0 0 612 792;" xml:space="preserve">
<style type="text/css">
	.st0{fill:#403723;}
	.st1{fill:#BD202E;stroke:#F6921E;stroke-miterlimit:10;}
	.st2{font-family:'SnapsTaste';}
	.st3{font-size:132.1169px;}
	.st4{fill:#BE1E2D;stroke:#F6921E;stroke-width:3;stroke-miterlimit:10;}
	.st5{font-size:140.0387px;}
	.st6{font-size:132.0037px;}
	.st7{font-size:131.5559px;}
	.st8{font-size:131.5817px;}
	.st9{fill:#BD202E;}
	.st10{font-size:61.5881px;}
	.st11{fill:none;stroke:#F79420;stroke-width:4;stroke-miterlimit:10;}
	.st12{font-size:61.6992px;}
</style>
<path id="XMLID_6_" class="st0" d="M163.2,364.3c0,0,6.8,3.5,8.6,6.9s3.7,7.1,5,3.6s-0.6-6.8-1.7-10.5c-1.1-3.7-4.6-9-6.3-13.1
	s-2.2-6.8-5.7-12.7s-4.4-7.7-6.6-13.4c-2.2-5.7-5.3-10.1-3.9-11c1.5-0.9,10.8-4.6,18.4-7c7.5-2.4,11.6-1.7,14.3-2.6
	s7.7,15.1,7.7,15.1c1.7-21-0.6-26.7,1.8-26.8c2.4-0.2,33.8-9,38.6-7.5s13.1,16.5,13.1,16.5s-2.8-17.3,0-20
	c2.8-2.8,47.4-4.4,51.9-4.4s10.5,0,11.3,2s1,3.7,1.4,4.4c0.4,0.7,2.4-10.1,5.5-9.9c3.1,0.2,50.8-2.4,53.3-1.3c2.6,1.1,7,6.8,8.3,8.1
	c1.3,1.3,1.7-9.4,3.5-9.6c1.8-0.2,26.3,0.7,26.3,0.7s66.2,7.4,67.7,7.7c1.5,0.4,6.1,2.6,4.2,8.8c-1.8,6.3-5,17.8-5.3,18.4
	s20.4-2,24.1-1.7c3.7,0.4,24.5,9.4,29.6,15.6c5.1,6.3,12.7,16.7,12.5,27.8s-1.7,44.9-47.1,47.3c0,0-37,7-52.7-27.7
	c0,0-26.7-5-29.7-8.5c0,0-27.5,12-30.8,12.3s-3.3-6.9-3.3-6.9s-20.9,2.4-22,0c-1.1-2.4-5.2-23.6-5.2-24.4c0-0.8,0,16.6-1.9,20.4
	c-1.9,3.8-51.2,10.6-52.5,10.2c-1.4-0.4-7.7-7.1-8-6.2c-0.3,0.9,0.3,4.1-12.7,6.2c-12.9,2.1-33,3.7-33.8,3.7s-8.5-18.4-8.5-18.4
	l-6.1,1.3c0,0,2.2,13,2.5,16.6c0.3,3.6-16.9,9.5-16.9,9.5s-18,53.2-51,25.7C115.2,371.2,163.2,364.3,163.2,364.3z"/>
<g id="XMLID_2_">
	<text id="XMLID_19_" transform="matrix(0.9322 -1.003694e-02 1.076678e-02 0.9999 243.1008 373.3535)" class="st1 st2 st3">R</text>
	<text id="XMLID_125_" transform="matrix(0.9322 -1.003694e-02 1.076678e-02 0.9999 243.1008 373.3535)" class="st4 st2 st3">R</text>
	<text id="XMLID_17_" transform="matrix(1.0263 -1.105056e-02 1.076678e-02 0.9999 436.2258 404.5963)" class="st1 st2 st5">O</text>
	<text id="XMLID_129_" transform="matrix(1.0263 -1.105056e-02 1.076678e-02 0.9999 436.2258 404.5963)" class="st4 st2 st5">O</text>
	<text id="XMLID_15_" transform="matrix(0.928 0.1052 -9.669458e-02 0.9953 371.9068 367.6941)" class="st1 st2 st6">I</text>
	<text id="XMLID_127_" transform="matrix(0.928 0.1052 -9.669458e-02 0.9953 371.9068 367.6941)" class="st4 st2 st6">I</text>
	<text id="XMLID_13_" transform="matrix(0.9083 0.2449 -0.2269 0.9739 387.3198 361.2236)" class="st1 st2 st7">T</text>
	<text id="XMLID_128_" transform="matrix(0.9083 0.2449 -0.2269 0.9739 387.3198 361.2236)" class="st4 st2 st7">T</text>
	<text id="XMLID_11_" transform="matrix(0.9322 -1.003694e-02 1.076678e-02 0.9999 307.7493 368.3827)" class="st1 st2 st3">R</text>
	<text id="XMLID_126_" transform="matrix(0.9322 -1.003694e-02 1.076678e-02 0.9999 307.7493 368.3827)" class="st4 st2 st3">R</text>
	<text id="XMLID_9_" transform="matrix(0.9322 -1.003694e-02 1.076678e-02 0.9999 189.0797 386.1009)" class="st1 st2 st3">A</text>
	<text id="XMLID_123_" transform="matrix(0.9322 -1.003694e-02 1.076678e-02 0.9999 189.0797 386.1009)" class="st4 st2 st3">A</text>
	<text id="XMLID_7_" transform="matrix(0.9035 -0.2609 0.2446 0.9696 151.8455 417.4928)" class="st1 st2 st8">J</text>
	<text id="XMLID_121_" transform="matrix(0.9035 -0.2609 0.2446 0.9696 151.8455 417.4928)" class="st4 st2 st8">J</text>
</g>
<g id="XMLID_10_">
	<path id="XMLID_14_" class="st0" d="M72.7,284.9c0,0,4.1,22.6,7,26.6c3,4,8.4,19.7,13.2,16.7c4.9-3,22.5-9.5,36-14.5
		s23.6-7,22.9-11.8s-3-13.9-6.7-15.8c-3.7-1.9-7.7-1.5-11.8,1.5s-7.4-14.5-10.9-17.4c-4.2-3.5-18.3-2.3-18.7-1.2
		C103.3,270.1,72.7,284.9,72.7,284.9z"/>
	<g id="XMLID_4_">
		<text id="XMLID_23_" transform="matrix(0.865 -0.483 0.4796 0.8775 90.5109 329.2292)" class="st9 st2 st10">E</text>
		<text id="XMLID_116_" transform="matrix(0.865 -0.483 0.4796 0.8775 90.5109 329.2292)" class="st11 st2 st10">E</text>
		<text id="XMLID_21_" transform="matrix(0.9737 -0.162 0.163 0.9866 113.9847 314.4592)" class="st9 st2 st12">L</text>
		<text id="XMLID_139_" transform="matrix(0.9737 -0.162 0.163 0.9866 113.9847 314.4592)" class="st11 st2 st12">L</text>
	</g>
</g>
</svg>
