<?xml version="1.0" encoding="utf-8"?>
<!-- Generator: Adobe Illustrator 19.0.0, SVG Export Plug-In . SVG Version: 6.00 Build 0)  -->
<svg version="1.1" id="Layer_1" xmlns="http://www.w3.org/2000/svg" xmlns:xlink="http://www.w3.org/1999/xlink" x="0px" y="0px"
	 viewBox="0 0 612 792" style="enable-background:new 0 0 612 792;" xml:space="preserve">
<style type="text/css">
	.st0{fill:#403723;stroke:#F7941E;stroke-miterlimit:10;}
	.st1{fill:#BE1E2D;stroke:#F7941E;stroke-miterlimit:10;}
	.st2{font-family:'SnapsTaste';}
	.st3{font-size:155.7177px;}
	.st4{font-size:156.7774px;}
	.st5{font-size:181.8801px;}
	.st6{font-size:192.7858px;}
	.st7{font-size:181.7637px;}
	.st8{font-size:181.3156px;}
	.st9{font-size:181.3309px;}
</style>
<g id="XMLID_1_">
	<path id="XMLID_131_" class="st0" d="M39.8,445.2c4.7,22.3,17.3,34.5,23.3,46.8c6,12.3-8.9,22.8-19.9,24s-17,10.7-15,17.4
		c2,6.7,5.7,47.9,20.4,55.2c14.7,7.3,26.8,6.2,33.8,6.2s32.1-15.7,38.2-20.7c6-5,15.1-17.3,15.1-21.7c0-4.5,24.1-9.4,24.1-9.4
		s8-6.2,26.1-6.2s36.2-6.7,50.2-6.7s58.2-7.7,69.3-5s49.6-2.7,56.4,0c6.9,2.7,7.9,10.6,15.9,9.4c8-1.1,26.1-5.5,33.1-9.4
		c7-4,30.1,5,36.2,5c6,0,7,20.1,18.1,24.6c11,4.5,47.3,22.1,64.3,19.5c15.6-2.4,54.5-12.3,62.5-19c8-6.7,15.5-44.3,14.5-56.5
		c-1-12.3-5.7-41.2-19.7-52.3c-14.1-11.2-40.2-23.5-53.2-23.5s-17.1-0.7-17.1-0.7s0-4.9,0-12.7c0-7.8-4-14.5-20.1-17.9
		c-16.1-3.4-56.2-12.3-72.3-12.3s-39.2,1.1-47.2,0c0,0-108.5,5.6-118.5,6.7c-10,1.1-34.1-8.9-41.2-6.7c-7,2.2-6-43.6-17.1-53.6
		c-11-10.1-19.1-12.3-29.1-12.3c-10,0-35.9-45.1-59-42.8c-23.1,2.2-40,8.3-61.1,17.2s-52.6,14.4-50.6,32.3S10.9,395,22,408.4
		S39.8,445.2,39.8,445.2z"/>
	<text id="XMLID_116_" transform="matrix(0.8867 -0.3792 0.3605 0.9328 48.0653 432.6559)" class="st1 st2 st3">E</text>
	<text id="XMLID_139_" transform="matrix(0.9497 -4.567347e-02 4.341629e-02 0.9991 109.388 402.4463)" class="st1 st2 st4">L</text>
	<text id="XMLID_125_" transform="matrix(0.9506 0 0 1 176.8329 520.1689)" class="st1 st2 st5">R</text>
	<text id="XMLID_129_" transform="matrix(1.0466 0 0 1 447.4569 566.0391)" class="st1 st2 st6">O</text>
	<text id="XMLID_127_" transform="matrix(0.9449 0.1152 -0.1095 0.994 357.7257 514.2881)" class="st1 st2 st7">I</text>
	<text id="XMLID_128_" transform="matrix(0.9224 0.2544 -0.2418 0.9703 379.463 505.6086)" class="st1 st2 st8">T</text>
	<text id="XMLID_126_" transform="matrix(0.9506 0 0 1 267.6571 514.2852)" class="st1 st2 st5">R</text>
	<text id="XMLID_123_" transform="matrix(0.9506 0 0 1 100.808 536.917)" class="st1 st2 st5">A</text>
	<text id="XMLID_121_" transform="matrix(0.9232 -0.2509 0.2385 0.9712 48.0681 579.5775)" class="st1 st2 st9">J</text>
</g>
</svg>
